<svg xmlns="http://www.w3.org/2000/svg" viewBox="0 0 70 66.054"><g id="Layer_2" data-name="Layer 2"><g id="Layer_1-2" data-name="Layer 1"><path d="M67.5,33.823a32.232,32.232,0,0,1-64.463,0c0-17.8,14.431-30.516,32.232-30.516S67.5,16.021,67.5,33.823Z" fill="#fcbab1"/><path d="M35,26.717,4.313,31.03,0,.343A30.989,30.989,0,0,1,35,26.717Z" fill="#fcbab1"/><path d="M35,26.68l30.687,4.313L70,.305A30.99,30.99,0,0,0,35,26.68Z" fill="#fcbab1"/><path d="M27.255,40.85l8,8,8-8A11.312,11.312,0,0,0,27.255,40.85Z" fill="#0b1616"/><path d="M38.834,52.429l-3.58-3.58-3.58,3.58A5.063,5.063,0,0,0,38.834,52.429Z" fill="#0b1616"/></g></g></svg>