<svg xmlns="http://www.w3.org/2000/svg" viewBox="0 0 100.282 89.167"><g id="Layer_2" data-name="Layer 2"><g id="Layer_1-2" data-name="Layer 1"><path d="M22.108,54.127c8.175,0,14.109,5.439,14.109,12.932A14.109,14.109,0,0,1,8,67.059c0-7.493,5.933-12.932,14.108-12.932m0-8C9.9,46.127,0,54.849,0,67.059a22.109,22.109,0,0,0,44.217,0c0-12.21-9.9-20.932-22.109-20.932Z" fill="#fcbab1"/><path d="M78.173,52.912c8.175,0,14.109,5.439,14.109,12.932a14.109,14.109,0,0,1-28.217,0c0-7.493,5.933-12.932,14.108-12.932m0-8c-12.21,0-22.108,8.722-22.108,20.932a22.109,22.109,0,0,0,44.217,0c0-12.21-9.9-20.932-22.109-20.932Z" fill="#fcbab1"/><path d="M51.14,32.1A10.776,10.776,0,0,1,40.363,42.881V21.329A10.777,10.777,0,0,1,51.14,32.1Z" fill="#0b1616"/><path d="M25.808,14.671A14.67,14.67,0,0,1,40.479,0V29.341A14.67,14.67,0,0,1,25.808,14.671Z" fill="#0b1616"/><path d="M60.505,65.366a15.578,15.578,0,0,0-22.031,0" fill="none" stroke="#fcbab1" stroke-miterlimit="10" stroke-width="7"/></g></g></svg>