<svg width="31" height="21" viewBox="0 0 31 21" fill="none" xmlns="http://www.w3.org/2000/svg">
<g clip-path="url(#clip0)">
<path d="M8.77948 0.562305C9.59903 0.547089 10.4174 0.631111 11.2168 0.81254C11.8898 0.959479 12.5288 1.23291 13.0998 1.6183C13.6271 2.00152 14.0444 2.51673 14.3097 3.1122C14.6145 3.84443 14.7616 4.63271 14.7413 5.42562C14.7759 6.29624 14.5536 7.1578 14.102 7.90294C13.6269 8.6067 12.9701 9.16874 12.2014 9.52946C13.2446 9.81069 14.1532 10.4549 14.7638 11.3462C15.35 12.2906 15.6447 13.3869 15.6109 14.4979C15.6302 15.3837 15.4471 16.2622 15.0754 17.0665C14.7318 17.7682 14.2288 18.3796 13.6065 18.852C12.9659 19.3191 12.2449 19.6647 11.4795 19.8717C10.6858 20.0912 9.86578 20.2015 9.04223 20.1995H0V0.562305H8.77948ZM8.25774 8.50475C8.90167 8.53129 9.53554 8.33853 10.0557 7.95799C10.3048 7.73623 10.4986 7.45928 10.6215 7.14927C10.7445 6.83925 10.7932 6.50478 10.7638 6.17257C10.7805 5.78456 10.7033 5.39826 10.5386 5.04651C10.399 4.76645 10.1818 4.53238 9.91304 4.37213C9.64078 4.19573 9.33489 4.07772 9.0147 4.02555C8.66729 3.95825 8.31377 3.92764 7.95996 3.93422H4.09634V8.52227H8.25774V8.50475ZM8.48295 16.8651C8.87237 16.8704 9.26099 16.8283 9.64029 16.74C9.98691 16.6634 10.3156 16.5211 10.6087 16.3208C10.8958 16.1206 11.1277 15.8512 11.2831 15.5376C11.4632 15.1377 11.5459 14.7007 11.5246 14.2627C11.5636 13.8634 11.5107 13.4606 11.37 13.0849C11.2292 12.7093 11.0043 12.3709 10.7125 12.0956C10.0941 11.6401 9.33618 11.4145 8.56928 11.4575H4.09634V16.8651H8.48295Z" fill="#F5D1C8"/>
<path d="M21.4451 16.7922C21.7666 17.0902 22.1453 17.3197 22.5583 17.4668C22.9713 17.6139 23.4098 17.6756 23.8473 17.648C24.5409 17.6655 25.2211 17.4545 25.7829 17.0474C26.24 16.7502 26.5861 16.3104 26.7676 15.7962H30.0344C29.6863 17.2599 28.8363 18.5553 27.6321 19.4572C26.4769 20.2239 25.1118 20.6122 23.726 20.5682C22.7369 20.5812 21.7553 20.3952 20.8395 20.0214C20.0111 19.676 19.2681 19.1537 18.6625 18.4913C18.0591 17.7971 17.5956 16.9928 17.2974 16.1228C16.9628 15.1503 16.7989 14.1271 16.8132 13.0987C16.8071 12.0875 16.9765 11.083 17.3137 10.1297C17.7668 8.78856 18.633 7.62544 19.7882 6.80723C20.9434 5.98903 22.328 5.55779 23.7435 5.57541C24.7885 5.55356 25.8219 5.79813 26.7463 6.28607C27.5819 6.74425 28.3027 7.38592 28.8545 8.16283C29.419 8.97804 29.8236 9.89299 30.0469 10.8591C30.2917 11.8965 30.379 12.9649 30.3059 14.0283H20.5755C20.4967 15.0274 20.8084 16.0182 21.4451 16.7922ZM25.7141 9.32392C25.4418 9.05156 25.1143 8.84073 24.7537 8.70562C24.393 8.57052 24.0076 8.51427 23.6234 8.54068C23.1137 8.52124 22.6076 8.63418 22.1545 8.86849C21.7953 9.06624 21.4782 9.33231 21.2211 9.65173C20.9933 9.95121 20.8235 10.2907 20.7207 10.6527C20.628 10.9545 20.57 11.266 20.548 11.581H26.5749C26.5224 10.7598 26.2232 9.97359 25.7166 9.32517L25.7141 9.32392Z" fill="#F5D1C8"/>
<path d="M27.3231 1.87318H19.771V3.80374H27.3231V1.87318Z" fill="#F5D1C8"/>
</g>
<defs>
<clipPath id="clip0">
<rect width="30.3372" height="20" fill="white" transform="translate(0 0.561951)"/>
</clipPath>
</defs>
</svg>
