<svg data-name="Layer 1" xmlns="http://www.w3.org/2000/svg" viewBox="0 0 24.247 15.985"><defs><style>.cls-1{fill:#191919;}</style></defs><path class="cls-1" d="M7.017,0A8.129,8.129,0,0,1,8.965.2,4.336,4.336,0,0,1,10.47.844a2.971,2.971,0,0,1,.967,1.194,4.507,4.507,0,0,1,.345,1.849,3.546,3.546,0,0,1-.511,1.98,3.766,3.766,0,0,1-1.519,1.3A3.629,3.629,0,0,1,11.8,8.619a4.513,4.513,0,0,1,.677,2.519,4.66,4.66,0,0,1-.428,2.053,4.01,4.01,0,0,1-1.174,1.427,5.177,5.177,0,0,1-1.7.815,7.2,7.2,0,0,1-1.948.262H0V0ZM6.6,6.348a2.277,2.277,0,0,0,1.437-.437A1.707,1.707,0,0,0,8.6,4.484a1.927,1.927,0,0,0-.18-.9,1.306,1.306,0,0,0-.5-.539,1.882,1.882,0,0,0-.718-.277A4.042,4.042,0,0,0,6.362,2.7H3.274V6.362H6.6Zm.18,6.682a3.84,3.84,0,0,0,.925-.1,2.217,2.217,0,0,0,.774-.335,1.663,1.663,0,0,0,.539-.626,2.22,2.22,0,0,0,.193-1.019,2.1,2.1,0,0,0-.649-1.732,2.641,2.641,0,0,0-1.713-.51H3.274V13.03Z"/><path class="cls-1" d="M17.14,12.972a2.584,2.584,0,0,0,1.92.684,2.531,2.531,0,0,0,1.547-.48,1.981,1.981,0,0,0,.787-1h2.611a5.143,5.143,0,0,1-1.92,2.926,5.338,5.338,0,0,1-3.122.888,5.9,5.9,0,0,1-2.307-.437,4.932,4.932,0,0,1-1.74-1.223,5.709,5.709,0,0,1-1.091-1.893,7.12,7.12,0,0,1-.387-2.417,6.976,6.976,0,0,1,.4-2.373,5.354,5.354,0,0,1,5.139-3.64,4.927,4.927,0,0,1,2.4.568,5.033,5.033,0,0,1,1.685,1.5,6.262,6.262,0,0,1,.953,2.155,8.5,8.5,0,0,1,.207,2.533H16.445A3.093,3.093,0,0,0,17.14,12.972ZM20.552,7a2.154,2.154,0,0,0-1.671-.626,2.359,2.359,0,0,0-1.174.262,2.513,2.513,0,0,0-.746.626,2.406,2.406,0,0,0-.4.8,3.338,3.338,0,0,0-.138.742H21.24A3.267,3.267,0,0,0,20.554,7Z"/><rect class="cls-1" x="15.802" y="1.048" width="6.036" height="1.543"/></svg>
