<svg width="25" height="25" viewBox="0 0 25 25" fill="none" xmlns="http://www.w3.org/2000/svg">
<path fill-rule="evenodd" clip-rule="evenodd" d="M0.337158 12.562C0.337158 10.3859 0.873174 8.37796 1.94516 6.53795C3.01717 4.69794 4.47317 3.24196 6.31316 2.16995C8.15317 1.09794 10.1612 0.561951 12.3372 0.561951C14.5132 0.561951 16.5212 1.09794 18.3612 2.16995C20.2012 3.24196 21.6572 4.69794 22.7292 6.53795C23.8012 8.37796 24.3372 10.3859 24.3372 12.562C24.3372 14.738 23.8012 16.7459 22.7292 18.586C21.6572 20.426 20.2012 21.8819 18.3612 22.954C16.5212 24.026 14.5132 24.562 12.3372 24.562C10.1612 24.562 8.15317 24.026 6.31316 22.954C4.47317 21.8819 3.01717 20.426 1.94516 18.586C0.873174 16.7459 0.337158 14.738 0.337158 12.562ZM2.32922 12.562C2.32922 15.058 3.16922 17.258 4.84922 19.162C5.61722 17.6579 6.83323 16.226 8.49722 14.866C10.1612 13.5059 11.7852 12.65 13.3692 12.298C13.1292 11.738 12.8972 11.234 12.6732 10.786C9.92124 11.666 6.94523 12.106 3.74522 12.106C3.12122 12.106 2.65723 12.098 2.35322 12.082C2.35322 12.146 2.34923 12.226 2.34122 12.322C2.33323 12.418 2.32922 12.4979 2.32922 12.562ZM4.20117 10.1379C3.51318 10.1379 2.99317 10.1219 2.64117 10.0899C3.00918 8.71396 3.64518 7.45794 4.54917 6.32195C5.45317 5.18596 6.53718 4.29796 7.80117 3.65795C9.25717 5.09795 10.5932 6.89795 11.8092 9.05795C9.40917 9.77795 6.87318 10.1379 4.20117 10.1379ZM6.21717 20.458C8.02518 21.866 10.0652 22.57 12.3372 22.57C13.5212 22.57 14.6972 22.346 15.8652 21.898C15.5452 19.162 14.9212 16.514 13.9932 13.9539C12.5212 14.2739 11.0372 15.082 9.54117 16.3779C8.04518 17.674 6.93717 19.034 6.21717 20.458ZM13.8011 8.33795C12.6011 6.16194 11.2971 4.34596 9.88909 2.88995C10.7051 2.66596 11.5211 2.55395 12.3371 2.55395C14.7371 2.55395 16.8651 3.32195 18.7211 4.85795C17.6171 6.26596 15.9771 7.42595 13.8011 8.33795ZM14.6652 10.0419C14.9052 10.5539 15.1773 11.2019 15.4812 11.9859C16.6653 11.8739 17.9532 11.8179 19.3452 11.8179C20.3373 11.8179 21.3213 11.8419 22.2972 11.8899C22.1692 9.71394 21.3852 7.77796 19.9452 6.08195C18.9052 7.63396 17.1453 8.95396 14.6652 10.0419ZM17.7372 20.962C17.4492 18.466 16.8972 16.034 16.0812 13.666C17.2012 13.586 18.2012 13.546 19.0812 13.546C20.0412 13.546 21.1052 13.586 22.2732 13.666C22.1132 15.154 21.6332 16.538 20.8332 17.818C20.0332 19.0979 19.0012 20.146 17.7372 20.962Z" fill="#F5D0C8"/>
</svg>
