<svg width="26" height="25" viewBox="0 0 26 25" fill="none" xmlns="http://www.w3.org/2000/svg">
<path fill-rule="evenodd" clip-rule="evenodd" d="M12.681 0.561951C5.89135 0.561951 0.384155 6.06914 0.384155 12.8588C0.384155 18.2906 3.92989 22.8925 8.75811 24.5522C9.36165 24.6277 9.58799 24.2504 9.58799 23.9486C9.58799 23.6469 9.58799 22.8925 9.58799 21.8363C6.19311 22.5908 5.43871 20.1766 5.43871 20.1766C4.91062 18.7432 4.08077 18.366 4.08077 18.366C2.94915 17.6117 4.15621 17.6117 4.15621 17.6117C5.36327 17.6871 6.04223 18.8942 6.04223 18.8942C7.17385 20.7801 8.90897 20.252 9.58799 19.9503C9.66339 19.1204 10.0406 18.5923 10.3424 18.2906C7.62649 17.9888 4.75973 16.9326 4.75973 12.1799C4.75973 10.8219 5.21238 9.76579 6.04223 8.86043C5.96679 8.63417 5.51415 7.35165 6.19311 5.69194C6.19311 5.69194 7.24929 5.39018 9.58799 6.97444C10.5687 6.67267 11.6249 6.59723 12.681 6.59723C13.7372 6.59723 14.7934 6.74812 15.7741 6.97444C18.1128 5.39018 19.169 5.69194 19.169 5.69194C19.848 7.35165 19.3953 8.63417 19.3198 8.9359C20.0742 9.76579 20.6024 10.8974 20.6024 12.2553C20.6024 17.0081 17.7356 17.9888 15.0197 18.2906C15.4724 18.6678 15.8496 19.4222 15.8496 20.5538C15.8496 22.2135 15.8496 23.496 15.8496 23.9486C15.8496 24.2504 16.0759 24.6277 16.6795 24.5522C21.5831 22.8925 25.0534 18.2906 25.0534 12.8588C24.9779 6.06914 19.4708 0.561951 12.681 0.561951Z" fill="#F5D1C8"/>
</svg>
