<svg width="22" height="23" viewBox="0 0 22 23" fill="none" xmlns="http://www.w3.org/2000/svg">
<path fill-rule="evenodd" clip-rule="evenodd" d="M2.88886 0.561951C4.43164 0.561951 5.38182 1.66971 5.4112 3.12671C5.4112 4.55158 4.43164 5.69147 2.85949 5.69147H2.83012C1.31544 5.69147 0.337158 4.55158 0.337158 3.12671C0.337158 1.66971 1.34481 0.561951 2.88886 0.561951ZM16.1864 7.36904C19.1493 7.36904 21.3842 9.48678 21.3842 14.0407V22.562H16.876V14.6135C16.876 12.6159 16.2119 11.2609 14.5899 11.2609C13.3384 11.2609 12.5976 12.1689 12.2656 13.0629C12.1506 13.3842 12.1251 13.8172 12.1251 14.2642V22.562H7.61687C7.61687 22.562 7.66795 9.10961 7.61687 7.71269H12.1251V9.80807C12.7254 8.80228 13.7981 7.36904 16.1864 7.36904ZM0.604035 7.71269H5.11362V22.562H0.604035V7.71269Z" fill="#F5D0C8"/>
</svg>
