<svg xmlns="http://www.w3.org/2000/svg" viewBox="0 0 76.07 101"><g id="Layer_2" data-name="Layer 2"><g id="Layer_1-2" data-name="Layer 1"><path d="M1,46.541H54.552a1,1,0,0,1,1,1V77.955a0,0,0,0,1,0,0H0a0,0,0,0,1,0,0V47.541A1,1,0,0,1,1,46.541Z" fill="#fcbab1"/><path d="M58.473,53.582a10.521,10.521,0,0,1,0,21.041H47.952V53.582H58.473m0-7.077H41.465a.59.59,0,0,0-.59.59V81.11a.59.59,0,0,0,.59.59H58.473a17.6,17.6,0,0,0,0-35.195Z" fill="#fcbab1"/><path d="M40.71,12.934A12.933,12.933,0,0,1,27.776,25.867V0A12.934,12.934,0,0,1,40.71,12.934Z" fill="#0b1616"/><path d="M14.842,30.6A12.933,12.933,0,0,1,27.776,17.665V43.532A12.934,12.934,0,0,1,14.842,30.6Z" fill="#0b1616"/><path d="M18.481,101H37.069a10.755,10.755,0,0,0,5.881-1.749,27.776,27.776,0,1,0-30.284.042A10.674,10.674,0,0,0,18.481,101Z" fill="#fcbab1"/></g></g></svg>